<svg id="d" width="669.16" height="457.55" version="1.1" viewBox="0 0 669.15643 457.54969" xmlns="http://www.w3.org/2000/svg"><g id="x" transform="translate(-35.933 -155.63)"><rect id="e" x="35.933" y="155.63" width="669.16" height="457.55" fill="none"/></g><g id="y" transform="translate(-35.933 -155.63)"><path id="di" d="m493.64 225.65v295.45" fill="none" stroke="#000" stroke-width="1px"/><rect id="cl" x="446.11" y="358.43" width="95.023" height="32.739" fill="#fff"/><text id="cg" x="450.93161" y="370.02954" fill="#000000" font-size="9px" letter-spacing="0px" stroke-width="1px" word-spacing="0px"><title id="dc">Beziehung</title><tspan id="cr" x="450.93161" y="370.02954" font-size="12.5px">Entf체hrung von </tspan><tspan id="cq" x="450.93161" y="385.65454" font-size="12.5px">Sunflower</tspan></text><path id="ds" d="m211.48 537.47h249.94v0.79851" fill="none" stroke="#000" stroke-width="1px"/><path id="ag" d="m131.41 519.5v-289.06" fill="none" stroke="#000" stroke-width="1px"/><path id="ah" d="m210.18 207.81h256.32" fill="none" stroke="#000" stroke-width="1px"/><text id="bf" x="304.49844" y="220.09703" fill="#000000" font-size="9px" letter-spacing="0px" stroke-width="1px" word-spacing="0px"><title id="m">Beziehung</title><tspan id="ct" x="304.49844" y="220.09703" font-size="12.5px">konkurrieren</tspan></text><rect id="bd" x="82.922" y="360.2" width="95.023" height="32.739" fill="#fff"/><text id="ax" x="89.776146" y="373.41202" fill="#000000" font-size="9px" letter-spacing="0px" stroke-width="1px" word-spacing="0px"><title id="db">Beziehung</title><tspan id="bs" x="89.776146" y="373.41202" font-size="12.5px">verfeindet oder</tspan><tspan id="bx" x="89.776146" y="389.03702" font-size="12.5px">befreundet</tspan></text><text id="de" x="305.25388" y="549.69763" fill="#000000" font-size="9px" letter-spacing="0px" stroke-width="1px" word-spacing="0px"><title id="bl">Beziehung</title><tspan id="aj" x="305.25388" y="549.69763" font-size="12.5px">kennen sich</tspan></text><path id="h" d="m613.3 208.08h78.243v378.5h-560.13v-31.252" fill="none" stroke="#000" stroke-linejoin="round" stroke-opacity=".94118"/><text id="bu" x="313.75974" y="582.62323" fill="#000000" font-size="9px" letter-spacing="0px" stroke-width="1px" word-spacing="0px"><title id="at">Beziehung</title><tspan id="ca" x="313.75974" y="582.62323" font-size="12.5px">verfeindet</tspan></text><path id="df" d="m575.95 434.46v91.711" fill="none" stroke="#000" stroke-width="1px"/><rect id="bv" x="526.62" y="465.05" width="95.023" height="15.172" fill="#fff"/><text id="ak" x="515.49774" y="476.6561" fill="#000000" font-size="9px" letter-spacing="0px" stroke-width="1px" word-spacing="0px"><title id="dq">Beziehung</title><tspan id="bz" x="515.49774" y="476.6561" font-size="12.5px">Famili채re Verbindung</tspan></text></g><g id="ad"><path id="cv" d="m177.64 73.214 80.65 102.21" fill="none" stroke="#000" stroke-width="1px"/><rect id="k" x="157.18" y="114.74" width="122.97" height="18.366" fill="#fff"/><path id="cf" d="m175.48 364.67 87.837-99.016" fill="none" stroke="#000" stroke-width="1px"/><path id="bw" d="m427.56 70.02-84.643 104.61" fill="none" stroke="#000" stroke-width="1px"/><path id="cc" d="m427.88 365.47-90.232-98.217" fill-rule="evenodd" stroke="#000" stroke-width="1px"/><rect id="co" x="157.91" y="305.81" width="122.97" height="18.366" fill="#fff"/><text id="bb" x="161.17651" y="318.31226" fill="#000000" font-size="9px" letter-spacing="0px" stroke-width="1px" word-spacing="0px"><title id="ci">Zielerreichung</title><tspan id="bh" x="161.17651" y="318.31226" font-size="12.5px">verfolgen Charaktere</tspan></text><text id="au" x="161.31696" y="127.55109" fill="#000000" font-size="9px" letter-spacing="0px" stroke-width="1px" word-spacing="0px"><title id="cx">Zielerreichung</title><tspan id="ar" x="161.31696" y="127.55109" font-size="12.5px">Karte zeigt den Weg</tspan></text><rect id="cm" x="336.9" y="105.1" width="95.023" height="32.739" fill="#fff"/><text id="af" x="342.20667" y="119.07101" fill="#000000" font-size="9px" letter-spacing="0px" stroke-width="1px" word-spacing="0px"><title id="cw">Zielerreichung</title><tspan id="ap" x="342.20667" y="119.07101" font-size="12.5px">Entf체hrung von </tspan><tspan id="cz" x="342.20667" y="134.69601" font-size="12.5px">Sunflower</tspan></text><rect id="cn" x="321.5" y="308.38" width="122.97" height="18.366" fill="#fff"/><text id="ba" x="323.23694" y="320.83008" fill="#000000" font-size="9px" letter-spacing="0px" stroke-width="1px" word-spacing="0px"><title id="cu">Zielerreichung</title><tspan id="cs" x="323.23694" y="320.83008" font-size="12.5px">Besitzt den Schl체ssel</tspan></text></g><g id="z" transform="translate(-35.933 -155.63)"><g id="cj" transform="translate(-33.661 -10.63)"><desc id="bj" data-href="/abenteuer/blumenkind/blumenkind"></desc><title id="dl">Kern</title><circle id="s" cx="370.51" cy="384.4" r="60.818" fill="#fc0" stroke="#000" stroke-linejoin="round" stroke-opacity=".94118"/><text id="p" x="331.15479" y="389.76486" fill="#000000" font-size="15px" letter-spacing="0px" stroke-width="1px" word-spacing="0px"><tspan id="av" x="331.15479" y="389.76486" font-size="15px">Blumenkind</tspan></text></g><g id="dg" transform="translate(-33.661 -10.63)"><title id="as">Partei</title><desc id="cb" data-href="/abenteuer/blumenkind/swip"></desc><rect id="a" x="491.79" y="193.11" width="168.31" height="49.503" rx="8" ry="8" fill="#fff" stroke="#000" stroke-linejoin="round"/><text id="o" x="556.83765" y="223.02383" fill="#000000" font-size="15px" letter-spacing="0px" stroke-width="1px" word-spacing="0px"><tspan id="ai" x="556.83765" y="223.02383" font-size="15px">SWIP</tspan></text></g><g id="aw" transform="translate(-33.661 322.46)"><title id="bc">Partei</title><desc id="br" data-href="/abenteuer/blumenkind/spacehippies"></desc><rect id="cd" x="80.917" y="193.11" width="168.31" height="49.503" rx="8" ry="8" fill="#fff" image-rendering="auto" stroke="#000" stroke-linejoin="round"/><text id="n" x="118.68476" y="221.73843" fill="#000000" font-size="15px" image-rendering="auto" letter-spacing="0px" stroke-width="1px" word-spacing="0px"><tspan id="cy" x="118.68476" y="221.73843" font-size="15px">SpaceHippies</tspan></text></g><g id="dd" transform="translate(-33.661 -10.63)"><title id="az">Partei</title><desc id="ch" data-href="/abenteuer/blumenkind/woodstock"></desc><rect id="v" x="491.79" y="526.2" width="168.31" height="49.503" rx="8" ry="8" fill="#fff" stroke="#000" stroke-linejoin="round"/><text id="q" x="518.15845" y="556.30817" fill="#000000" font-size="15px" letter-spacing="0px" stroke-width="1px" word-spacing="0px"><tspan id="da" x="518.15845" y="556.30817" font-size="15px">Ocean Sunflower</tspan></text></g><g id="dr" transform="translate(-33.661 -343.72)"><title id="am">Partei</title><desc id="bq" data-href="/abenteuer/blumenkind/einstieg"></desc><rect id="dp" x="80.917" y="526.2" width="168.31" height="49.503" rx="8" ry="8" fill="#fff" stroke="#000" stroke-linejoin="round"/><text id="dn" x="108.69086" y="554.82501" fill="#000000" font-size="15px" letter-spacing="0px" stroke-width="1px" word-spacing="0px"><tspan id="bn" x="108.69086" y="554.82501" font-size="15px">Charaktergruppe</tspan></text></g><g id="ce" transform="translate(17.647 -127.82)"><title id="ck">Partei</title><desc id="bm" data-href="/abenteuer/blumenkind/doradus"></desc><g id="bo"><rect id="dk" x="491.79" y="526.2" width="168.31" height="49.503" rx="8" ry="8" fill="#fff" stroke="#000" stroke-linejoin="round"/><text id="bi" x="518.15845" y="556.30817" fill="#000000" font-size="15px" letter-spacing="0px" stroke-width="1px" word-spacing="0px"><tspan id="bt" x="518.15845" y="556.30817" font-size="15px">Hippie-Kommune</tspan></text></g></g></g><g id="ae" stroke-linejoin="round"><rect id="g" x="417.19" y="354.48" width="12" height="12" fill="#00f"><title id="be">Verpflichtung</title></rect><path id="an" transform="matrix(.23944 0 0 -.27649 421.13 181.01)" d="m179.97 392.08h-50.116l25.058-43.402z" fill="#f00"><title id="do">Verfeindet</title></path><path id="ay" transform="matrix(.23944 0 0 .27649 421.13 258.07)" d="m179.97 392.08h-50.116l25.058-43.402z" fill="#f00"><title id="dm">Verfeindet</title></path><circle id="dt" cx="180.34" cy="382.24" r="6" fill="#0a0"><title id="b">Befreundet</title></circle><circle id="ao" cx="423.19" cy="382.24" r="6" fill="#0a0"><title id="c">Befreundet</title></circle><path id="f" transform="matrix(0 -.23944 -.27649 0 285.24 88.747)" d="m179.97 392.08h-50.116l25.058-43.402z" fill="#f00"><title id="bk">Verfeindet</title></path><path id="r" transform="matrix(0 -.23944 .27649 0 318.01 88.747)" d="m179.97 392.08h-50.116l25.058-43.402z" fill="#f00"><title id="by">Verfeindet</title></path><circle id="dh" cx="103.33" cy="360.48" r="6" fill="#0a0"><title id="aa">Befreundet</title></circle><circle id="aq" cx="103.33" cy="78.602" r="6" fill="#0a0"><title id="bp">Befreundet</title></circle><path id="al" transform="matrix(.23944 0 0 -.27649 50.858 181.01)" d="m179.97 392.08h-50.116l25.058-43.402z" fill="#f00"><title id="dj">Verfeindet</title></path><path id="j" transform="matrix(.23944 0 0 .27649 50.858 258.07)" d="m179.97 392.08h-50.116l25.058-43.402z" fill="#f00"><title id="bg">Verfeindet</title></path><path id="i" transform="matrix(.23944 0 0 -.27649 58.605 513.39)" d="m179.97 392.08h-50.116l25.058-43.402z" fill="#f00"><title id="l">Verfeindet</title></path><path id="w" transform="matrix(0 -.23944 -.27649 0 693.98 88.747)" d="m179.97 392.08h-50.116l25.058-43.402z" fill="#f00"><title id="cp">Verfeindet</title></path><circle id="u" cx="539.8" cy="360.48" r="6" fill="#0a0"><title id="ab">Befreundet</title></circle><circle id="t" cx="539.8" cy="291.46" r="6" fill="#0a0"><title id="ac">Befreundet</title></circle></g></svg>