<svg id="a" width="79.403mm" height="79.105mm" version="1.1" viewBox="0 0 281.35 280.29" xmlns="http://www.w3.org/2000/svg"><ellipse id="b" cx="140.67" cy="140.15" rx="113.17" ry="112.65" fill="none" stroke="#dadada" stroke-linecap="round" stroke-linejoin="round" stroke-width="3.8721"/><circle id="c" cx="220.7" cy="60.494" r="27.5" fill="#6c757d"/><text id="d" x="220.69469" y="56.761768" fill="#ffffff" font-family="'Liberation Sans'" font-size="13.946px" letter-spacing="0px" stroke-width="1px" text-align="center" text-anchor="middle" word-spacing="0px"><tspan id="e" x="220.69469" y="56.761768" text-align="center">Spiel-</tspan><tspan id="f" x="220.69469" y="74.194893" text-align="center">leiter</tspan></text><circle id="g" cx="140.67" cy="27.5" r="27.5" fill="#fc0"/><text id="h" x="118.76778" y="31.106148" fill="#000000" font-family="'Liberation Sans'" letter-spacing="0px" stroke-width="1px" word-spacing="0px"><tspan id="i" x="118.76778" y="31.106148" fill="#000000" font-size="13.946px">Spieler</tspan></text><circle id="j" cx="60.648" cy="60.494" r="27.5" fill="#6c757d"/><text id="k" x="60.641644" y="56.761723" fill="#ffffff" font-family="'Liberation Sans'" font-size="13.946px" letter-spacing="0px" stroke-width="1px" text-align="center" text-anchor="middle" word-spacing="0px"><tspan id="l" x="60.641644" y="56.761723" text-align="center">Spiel-</tspan><tspan id="m" x="60.641644" y="74.194847" text-align="center">leiter</tspan></text><circle id="n" cx="27.5" cy="140.15" r="27.5" fill="#fc0"/><text id="o" x="5.593194" y="143.75185" fill="#000000" font-family="'Liberation Sans'" letter-spacing="0px" stroke-width="1px" word-spacing="0px"><tspan id="p" x="5.593194" y="143.75185" fill="#000000" font-size="13.946px">Spieler</tspan></text><circle id="q" cx="60.648" cy="219.8" r="27.5" fill="#6c757d"/><text id="r" x="60.641632" y="216.06686" fill="#ffffff" font-family="'Liberation Sans'" font-size="13.946px" letter-spacing="0px" stroke-width="1px" text-align="center" text-anchor="middle" word-spacing="0px"><tspan id="s" x="60.641632" y="216.06686" text-align="center">Spiel-</tspan><tspan id="t" x="60.641632" y="233.49998" text-align="center">leiter</tspan></text><circle id="u" cx="140.67" cy="252.79" r="27.5" fill="#fc0"/><text id="v" x="118.76778" y="256.39761" fill="#000000" font-family="'Liberation Sans'" letter-spacing="0px" stroke-width="1px" word-spacing="0px"><tspan id="w" x="118.76778" y="256.39761" fill="#000000" font-size="13.946px">Spieler</tspan></text><circle id="x" cx="220.7" cy="219.8" r="27.5" fill="#6c757d"/><text id="y" x="220.69467" y="216.06686" fill="#ffffff" font-family="'Liberation Sans'" font-size="13.946px" letter-spacing="0px" stroke-width="1px" text-align="center" text-anchor="middle" word-spacing="0px"><tspan id="z" x="220.69467" y="216.06686" text-align="center">Spiel-</tspan><tspan id="aa" x="220.69467" y="233.49998" text-align="center">leiter</tspan></text><circle id="ab" cx="253.85" cy="140.15" r="27.5" fill="#fc0"/><text id="ac" x="231.94237" y="143.75188" fill="#000000" font-family="'Liberation Sans'" letter-spacing="0px" stroke-width="1px" word-spacing="0px"><tspan id="ad" x="231.94237" y="143.75188" fill="#000000" font-size="13.946px">Spieler</tspan></text><text id="ae" x="140.55579" y="136.23044" fill="#000000" font-family="'Liberation Sans'" font-size="13.946px" letter-spacing="0px" stroke-width="1px" text-align="center" text-anchor="middle" word-spacing="0px"><tspan id="af" x="140.55579" y="136.23044" text-align="center">3-4</tspan><tspan id="ag" x="140.55579" y="153.66356" text-align="center">Runden</tspan></text><circle id="ah" transform="rotate(-11.216)" cx="110.73" cy="164.83" r="47.716" fill="none" stroke="#000" stroke-width="3.8721"/><path id="ai" transform="matrix(.63302 -.12553 .12553 .63302 -24.128 29.996)" d="m236.04 144.26-18.405 10.626v-21.252z" fill="#fff"/><path id="aj" transform="matrix(.63302 -.12553 .12553 .63302 -24.128 29.996)" d="m232.69 143.75-18.405 10.626v-21.252z"/></svg>