<svg id="a" width="41.562" height="37.658" version="1.1" xmlns="http://www.w3.org/2000/svg"><path id="e" d="m30.772 22.277a1.5 1.5 0 0 1-1.5 1.5 1.5 1.5 0 0 1-1.5-1.5 1.5 1.5 0 0 1 1.5-1.5 1.5 1.5 0 0 1 1.5 1.5zm-9.9806-22.277c-6.5525 0-12.396 2.1841-16.207 6.1914 2.8388 1.8972 5.9929 3.6708 9.4043 5.2305 8.616 3.9391 17.199 5.7779 23.996 5.5938 1.2501-0.0339 2.4316-0.13868 3.541-0.30469-0.76075-10.581-9.753-16.711-20.734-16.711zm-17.623 7.8984c-2.005 2.7755-3.168 6.2265-3.168 10.277-9.9999e-6 2.9932 0.67685 6.179 2.6172 8.541 1.1888 1.4472 2.6859 2.4749 4.3984 3.1992 1.311 0.55429 2.7558 0.80514 3.4531 2.1816 0.69402 1.37 0.54427 2.3258 1.8906 3.3809 2.2873 1.7922 5.6167 2.1797 8.4316 2.1797 2.8151 0 6.1464-0.38744 8.4336-2.1797 1.3463-1.055 1.1966-2.0108 1.8906-3.3809 0.69733-1.3765 2.105-1.6273 3.416-2.1816 1.7124-0.72435 3.2467-1.7518 4.4356-3.1992 1.7791-2.1657 2.4889-5.0234 2.5957-7.791-0.80266 0.11143-1.6302 0.19165-2.4805 0.24024-0.1049 0.44033-0.32208 0.99492-0.67578 1.6973-3.8877 7.7198-7.5864 9.2188-12.271 6.8594-1.1712-0.58985-2.1396-1.4435-2.8887-2.4824-0.74909-1.0389-1.28-2.2634-1.5723-3.5937-0.25658-1.1678-0.32947-3.4687-0.20899-5.0039-2.7606-0.85903-5.5752-1.9307-8.3926-3.2188-3.5934-1.6429-6.9138-3.5129-9.9043-5.5254zm9.25 9.1094c0.0778-9e-4 0.15505-3.2e-4 0.23242 4e-3 0.3537 0.0172 0.71563 0.096 1.0527 0.21875 2.697 0.98158 3.636 5.1918 2.6543 7.8887-0.98157 2.697-3.9553 4.0713-6.6523 3.0898-2.6969-0.98157-4.1085-3.9553-3.127-6.6524 0.83202-2.2861 3.4276-4.5213 5.8398-4.5488z" fill="#fc0" stop-color="#000000" stroke-width="2.2"/></svg>