<svg id="a" width="279.59" height="37.658" version="1.1" xmlns="http://www.w3.org/2000/svg"><g id="b" transform="translate(-473.82 -118.45)" fill="#000"><path id="c" d="m491.14 122.94v2.3125c-0.97742-0.3743-1.9601-0.72986-2.9375-1.125-1.5389-0.51987-3.0549-0.78122-4.5938-0.78125-2.9114 3e-5 -5.2218 0.98284-6.9062 3-1.227 1.4765-1.8438 2.9506-1.8438 4.4062 0.35353 2.3083 1.4512 4.0542 3.2812 5.2188 1.2685 0.81105 3.0667 1.386 5.375 1.7188 1.4557 0.20797 2.888 0.40659 4.3438 0.59375 0.87341 0.20797 1.5947 0.59477 2.1562 1.1562 0.72783 0.70706 1.0937 1.6166 1.0938 2.7188-2e-5 1.5805-0.52273 2.7828-1.5625 3.6562-1.019 0.85263-2.4514 1.2812-4.3438 1.2812-1.5389 0-3.2534-0.3868-5.125-1.1562-1.8508-0.79023-3.1472-1.6266-3.875-2.5v-3.7812h-2.375v12.562h2.375v-5.7812c0.60307 0.37433 1.2094 0.74022 1.8125 1.0938 1.7052 0.9566 4.1306 1.4375 7.25 1.4375 3.7848 0 6.6494-1.0872 8.625-3.25 1.5389-1.6844 2.3125-3.6081 2.3125-5.8125-2e-5 -1.83-0.72137-3.4295-2.1562-4.7812-1.331-1.2477-3.0664-2.1259-5.1875-2.625-1.6845-0.24953-3.3364-0.50044-5-0.75-2.6411-0.62385-3.9688-1.7111-3.9688-3.25-1e-5 -0.91499 0.48088-1.6886 1.4375-2.3125 0.95659-0.64464 2.0438-0.96872 3.25-0.96875 1.6636 2e-5 3.1692 0.40774 4.5625 1.2188 1.3933 0.79026 2.0937 1.867 2.0938 3.2188v1.5h2.375v-8.2188zm62.344 7.0312v2.4062c-0.60309-0.18715-1.199-0.38577-1.7812-0.59375-0.58229-0.16635-1.3977-0.24999-2.4375-0.25-2.4955 2e-5 -4.6178 0.90953-6.4062 2.7188-1.7884 1.8092-2.6875 4.0255-2.6875 6.625 0 2.038 0.55408 3.7003 1.6562 5.0312 1.7052 2.0796 4.6012 3.125 8.7188 3.125 2.1627 0 4.0654-0.54362 5.6875-1.625 1.622-1.1022 2.4375-2.4299 2.4375-3.9688-2e-5 -0.56148-0.19865-0.99022-0.59375-1.3438-0.37434-0.37432-0.7716-0.56249-1.1875-0.5625-0.41593 1e-5 -0.80274 0.18818-1.1562 0.5625-0.35354 0.37433-0.53127 0.68807-0.53125 1-2e-5 0.27035 0.1568 0.50035 0.46875 0.6875 0.33272 0.16637 0.49999 0.38591 0.5 0.65625-2e-5 0.66547-0.39728 1.2091-1.1875 1.625-0.79025 0.39512-1.7416 0.59374-2.8438 0.59375-2.1628 0-3.8145-0.82588-4.9375-2.4688-0.89422-1.3101-1.3438-2.8679-1.3438-4.7188-1e-5 -1.6636 0.43907-3.0854 1.3125-4.25 0.87341-1.1646 2.0025-1.75 3.375-1.75 0.74864 2e-5 1.3654 0.14637 1.8438 0.4375 0.31192 0.18718 0.6151 0.4799 0.90625 0.875v2.3125h2.375v-7.125zm-42.095 0.84307c-0.5407 2e-5 -1.0426 0.0209-1.5625 0.0625-0.49911 0.0416-0.94864 0.12524-1.3438 0.25-0.79025 0.20797-1.5325 0.49024-2.2188 0.84375-0.68627 0.35354-1.2612 0.66717-1.7188 0.9375-0.0624-0.0416-0.10422-0.14612-0.125-0.3125v-1.4688c-0.24956-0.0624-1.3263 0.14671-3.2188 0.625-1.8924 0.45752-3.241 0.68752-4.0312 0.6875v1.7188c0.51989 1e-5 0.91715-0.0209 1.1875-0.0625 0.27034-0.0624 0.50034-0.1251 0.6875-0.1875l-0.0312 19.719h7.6562v-1.5h-2.2812l0.0312-4.375c0.70705 0.31194 1.4388 0.62557 2.1875 0.9375 0.74864 0.31194 1.4804 0.46875 2.1875 0.46875 0.70704 0 1.4599-0.14637 2.3125-0.4375 0.87341-0.29114 1.9084-0.78249 3.0938-1.4688 1.6012-0.9566 2.8871-2.4829 3.8438-4.5625 0.79022-1.726 1.1875-3.3152 1.1875-4.8125-2e-5 -1.2269-0.21956-2.2619-0.65625-3.0938-0.31196-0.60306-0.81376-1.2199-1.5-1.8438-0.66548-0.62386-1.4077-1.1048-2.2188-1.4375-0.79026-0.33271-1.6266-0.55225-2.5-0.65625-0.16638-0.0208-0.49047-0.0312-0.96875-0.0312zm-2.4062 2.25c1.2477 2e-5 2.2828 0.56455 3.1562 1.6875 0.8942 1.1022 1.3437 2.4822 1.3438 4.125-2e-5 0.31195-0.0105 0.60466-0.0312 0.875-0.0208 0.24956-0.0626 0.50046-0.125 0.75-0.33275 1.726-1.075 3.2629-2.2188 4.6562-1.0398 1.2685-1.9912 1.969-2.9062 2.0938-0.10399 0.0208-0.27126 0.0312-0.5 0.0312-0.5615 0-1.1783-0.16727-1.8438-0.5-0.45751-0.22875-0.8966-0.50056-1.3125-0.8125-0.0624-0.0416-0.10422-0.37612-0.125-1v-2.0312c0.0208-1.2477 0.0417-2.4919 0.0625-3.7812 0.0208-1.3101 0.0417-2.5751 0.0625-3.7812 0.31193-0.39511 0.59419-0.69828 0.84375-0.90625 0.76943-0.62386 1.7103-1.0629 2.8125-1.3125 0.29113-0.0624 0.55249-0.0937 0.78125-0.0937zm12.625-2.3438v5.4688h2.1562v-1.7188c0.68625-0.45749 1.5121-0.82339 2.4688-1.0938 0.97739-0.27033 2.1064-0.40624 3.375-0.40625 1.2061 2e-5 2.0426 0.19865 2.5625 0.59375 0.66545 0.49911 0.99998 1.4191 1 2.75-1e-5 0.5615-0.50193 0.89603-1.5625 1-2.4539 0.24956-4.5448 0.58409-6.25 1-2.3083 0.56149-3.9915 1.4187-5.0312 2.5625-0.81103 0.89422-1.2188 1.9398-1.2188 3.1875 0 1.6429 0.5227 2.9183 1.5625 3.8125 1.0606 0.89422 2.6914 1.3438 4.875 1.3438 1.934 0 3.523-0.21954 4.75-0.65625 1.2269-0.45751 2.0738-0.9593 2.5938-1.5l0.15625-0.125v1.7188h6.7812v-1.5h-1.4062v-11.906c-2e-5 -1.4557-0.80499-2.5743-2.4062-3.3438-1.2894-0.62385-2.8367-0.93749-4.6875-0.9375-1.7468 2e-5 -3.3045 0.14638-4.6562 0.4375-1.3517 0.29116-2.324 0.6466-2.9062 1.0625v-1.75zm11.562 8.0312v5.9062c-0.37434 0.70706-0.99125 1.303-1.9062 1.7812-0.89423 0.4783-1.8037 0.71876-2.7188 0.71875-1.019 0-1.8867-0.33454-2.5938-1-0.70706-0.66546-1.0625-1.4182-1.0625-2.25-1e-5 -1.8716 1.1081-3.1994 3.3125-4.0312 1.6636-0.37431 3.3051-0.75067 4.9688-1.125zm37.438-7.1562c-3.0986 2e-5 -5.5971 0.78409-7.4688 2.3438-1.3725 1.1438-2.3448 2.6387-2.9062 4.4688-0.31194 0.9982-0.46875 1.96-0.46875 2.875 0 2.7034 0.90951 4.6899 2.7188 6 0.91501 0.66546 2.0441 1.1568 3.375 1.4688 1.3309 0.33273 2.8363 0.5 4.5 0.5 2.4955 0 4.6282-0.56452 6.375-1.6875 1.7676-1.123 2.625-2.5029 2.625-4.125-0.0416-0.49909-0.0939-0.83373-0.15625-1.0625-0.22877-0.72784-0.69923-1.0938-1.4062-1.0938-0.35355 1e-5 -0.71956 0.15683-1.1562 0.46875-0.41593 0.29115-0.62503 0.58398-0.625 0.9375-2e-5 0.43672 0.16726 0.70852 0.5 0.8125 0.35351 0.0832 0.49997 0.20864 0.5 0.375-2e-5 0.76945-0.50194 1.4908-1.5625 2.1562-1.0398 0.64467-2.1584 0.96875-3.3438 0.96875-2.5995 0-4.5126-0.94087-5.7188-2.8125-0.81104-1.2477-1.2188-2.6174-1.2188-4.1562-1e-5 -0.22874 0.0418-0.38556 0.125-0.46875h13.406c0.20794-0.0832 0.3125-0.25044 0.3125-0.5-0.0624-0.20795-0.11469-0.41703-0.15625-0.625-0.0624-0.66545-0.25058-1.3345-0.5625-2-0.29116-0.66545-0.6675-1.2718-1.125-1.8125-0.5823-0.68624-1.4501-1.3449-2.6562-1.9688-1.3933-0.70704-2.7001-1.0625-3.9062-1.0625zm-0.625 1.7188c1.1438 2e-5 2.0428 0.48091 2.6875 1.4375 0.56147 0.83184 0.84372 1.8773 0.84375 3.125h-7.9375c-1e-5 -1.2269 0.43908-2.2933 1.3125-3.1875 0.89421-0.915 1.9292-1.375 3.0938-1.375z"/><path id="d" d="m641.85 122.97c-1.9756 3e-5 -4.0561 0.16729-6.2812 0.5-2.2044 0.31196-3.6157 0.67786-4.2188 1.0938l0.28125 1.75c1.2893-0.3535 2.3139-0.61486 3.0625-0.78125 2.2459-0.49907 4.0233-0.71873 5.375-0.71875 1.934 2e-5 3.7844 0.61693 5.5312 1.9062 1.8924 1.3933 2.8437 3.0451 2.8438 4.9375-2e-5 2.0588-0.575 3.7001-1.7188 4.9062-1.1438 1.2062-2.7119 1.8125-4.6875 1.8125l-1.0625-0.0312v-12.25c-2.1628 0.62389-4.2015 1.063-6.1562 1.3125-1.1438 0.14559-2.116 0.21877-2.9062 0.21875v1.4375c0 0.29116 0.15682 0.43752 0.46875 0.4375 0.27034 2e-5 0.7617-0.0418 1.4688-0.125 0.72785-0.0832 1.1878-0.12498 1.375-0.125v17.344h-3.3125v2.0625h12.531v-2.0625h-3.6562v-6.4688h0.53125c0.87341 0.18717 1.7725 0.28126 2.6875 0.28125 2.8282 1e-5 5.2118-0.77361 7.125-2.3125 2.1211-1.7052 3.1562-4.0679 3.1562-7.0625-2e-5 -2.3915-0.93056-4.3569-2.8438-5.875-1.7884-1.4141-3.9525-2.0937-6.4688-2.0938zm17.781-0.43745c-0.91502 3e-5 -1.6886 0.34501-2.3125 1.0312-0.54069 0.6031-0.81251 1.2305-0.8125 1.9375 0 0.93583 0.2718 1.699 0.8125 2.2812 0.62387 0.68628 1.3975 1.0313 2.3125 1.0312 0.99819 2e-5 1.7719-0.33452 2.375-1 0.60307-0.66544 0.90625-1.4391 0.90625-2.3125-1e-5 -0.8734-0.33453-1.5635-1-2.125-0.66547-0.56146-1.4078-0.84372-2.2812-0.84375zm51.25 1.8124c-0.12478 2e-5 -0.29204 0.0732-0.5 0.21875l-4.6875 3.375v3.3125h-1.9688v1.875h1.8438v15.5h8.2188v-1.4375h-2.5938v-14.062h2.5v-1.875h-2.5938v-6.5625c-1e-5 -0.22873-0.0732-0.34373-0.21875-0.34375zm38 6.0625v2.0625c-0.5615-0.43669-1.3665-0.78169-2.4062-1.0312-1.019-0.24953-1.9599-0.37498-2.8125-0.375-2.5579 2e-5 -4.5756 0.67954-6.0938 2.0312-1.2062 1.0814-1.8125 2.2314-1.8125 3.4375 0 1.9548 0.93043 3.5543 2.7812 4.7812 1.6636 1.1022 3.5978 1.625 5.8438 1.625 1.2269 1e-5 2.1469 0.0941 2.75 0.28125 0.95659 0.29115 1.4375 0.84522 1.4375 1.6562-1e-5 0.89422-0.52274 1.5946-1.5625 2.0938-0.83184 0.39512-1.8041 0.59376-2.9062 0.59375-0.76945 0-1.7626-0.1359-2.9688-0.40625-1.2062-0.27034-2.0008-0.51078-2.4375-0.71875-0.58228-0.29114-1.0214-0.54204-1.3125-0.75-0.29114-0.22875-0.50021-0.4692-0.625-0.71875v-2.7812h-1.9375v9.0938h1.9375v-3.7812c0.87342 0.54069 1.6366 0.91704 2.2812 1.125 1.123 0.37432 2.4194 0.5625 3.9375 0.5625 3.3689 0 5.9197-0.48089 7.625-1.4375 1.8716-1.0398 2.8125-2.7125 2.8125-5-2e-5 -1.4557-0.71089-2.679-2.125-3.7188-1.1854-0.87341-2.5131-1.4066-3.9688-1.5938-3.3481-0.39511-5.1149-0.62511-5.2812-0.6875-0.93581-0.31192-1.4062-0.79283-1.4062-1.4375-1e-5 -0.66545 0.33454-1.2091 1-1.625 0.66546-0.4367 1.4495-0.65624 2.3438-0.65625 1.0814 2e-5 2.0327 0.14638 2.8438 0.4375 0.81102 0.27036 1.501 0.69899 2.0625 1.2812v2.0312h1.9375v-6.375zm-86.812 0.6562c-0.0624 2e-5 -1.2229 0.31364-3.5312 0.9375-0.74865 0.18718-1.8672 0.49035-3.3438 0.90625v1.5938l1.7188-0.375v13.031h-1.875v1.5h9.5312v-1.5h-2.2188v-15.906c-0.10399-0.0208-0.19807-0.0835-0.28125-0.1875zm18.688 0c-1.8716 2e-5 -3.4398 0.74227-4.6875 2.2188-0.76945 1.227-1.5326 2.4501-2.2812 3.6562l0.0625-5.5625c-0.0832-0.0832-0.14592-0.13543-0.1875-0.15625-0.16637-0.0832-0.33363-0.10407-0.5-0.0625-0.9982 0.29116-2.0123 0.55252-3.0312 0.78125-0.9982 0.20797-2.1692 0.45888-3.5625 0.75-0.0624 0.0416-0.0939 0.1566-0.0937 0.34375 0 0.24956 0.0315 0.51092 0.0937 0.78125 0.0624 0.24956 0.13557 0.42729 0.21875 0.53125 0.10398 0.0832 0.26078 0.12501 0.46875 0.125 0.14557 1e-5 0.23978-0.0105 0.34375-0.0312 0.12477-0.0208 0.41748-0.073 0.875-0.15625v12.875h-2.0938v1.4688h9.5625v-1.4688h-2.1562v-4.4062c-1e-5 -1.5389 0.56451-3.2849 1.6875-5.2812 1.2061-2.1212 2.377-3.1248 3.5-3 0.0832 0.33275 0.17726 0.66728 0.28125 1 0.20794 0.81105 0.68884 1.2188 1.4375 1.2188 0.915 1e-5 1.6363-0.26134 2.1562-0.78125 0.51988-0.51988 0.78125-1.1785 0.78125-1.9688-2e-5 -0.83181-0.24047-1.5218-0.71875-2.0625-0.47832-0.54067-1.1996-0.81248-2.1562-0.8125zm4.6242-0.34438v5.4688h2.1562v-1.7188c0.68625-0.45749 1.4809-0.82339 2.4375-1.0938 0.97739-0.27033 2.1065-0.40624 3.375-0.40625 1.2061 2e-5 2.0738 0.19865 2.5938 0.59375 0.66545 0.49911 0.99998 1.4191 1 2.75-1e-5 0.5615-0.53318 0.89603-1.5938 1-2.4539 0.24956-4.5135 0.58409-6.2188 1-2.3083 0.56149-3.9915 1.4187-5.0312 2.5625-0.81103 0.89422-1.2187 1.9398-1.2188 3.1875 0 1.6429 0.52271 2.9183 1.5625 3.8125 1.0606 0.89422 2.6914 1.3438 4.875 1.3438 1.934 0 3.4918-0.21954 4.7188-0.65625 1.2269-0.45751 2.1051-0.9593 2.625-1.5l0.15625-0.125v1.7188h6.7812v-1.5h-1.4062v-11.906c-2e-5 -1.4557-0.805-2.5743-2.4062-3.3438-1.2894-0.62385-2.868-0.93749-4.7188-0.9375-1.7468 2e-5 -3.3045 0.14638-4.6562 0.4375-1.3517 0.29116-2.2927 0.6466-2.875 1.0625v-1.75zm11.562 8.0312v5.9062c-0.37434 0.70706-1.0225 1.303-1.9375 1.7812-0.89423 0.4783-1.8037 0.71876-2.7188 0.71875-1.019 0-1.8555-0.33454-2.5625-1-0.70706-0.66546-1.0625-1.4182-1.0625-2.25-1e-5 -1.8716 1.0769-3.1994 3.2812-4.0312 1.6636-0.37431 3.3363-0.75067 5-1.125zm27.75-7.1562c-3.0986 2e-5 -5.5971 0.78409-7.4688 2.3438-1.3725 1.1438-2.3448 2.6387-2.9062 4.4688-0.31194 0.9982-0.46873 1.96-0.46875 2.875 0 2.7034 0.90951 4.6899 2.7188 6 0.91501 0.66546 2.0441 1.1568 3.375 1.4688 1.3309 0.33273 2.8363 0.5 4.5 0.5 2.4955 0 4.5969-0.56452 6.3438-1.6875 1.7676-1.123 2.6562-2.5029 2.6562-4.125-0.0416-0.49909-0.0939-0.83373-0.15625-1.0625-0.22877-0.72784-0.69923-1.0938-1.4062-1.0938-0.35355 1e-5 -0.75081 0.15683-1.1875 0.46875-0.41593 0.29115-0.62503 0.58398-0.625 0.9375-2e-5 0.43672 0.16726 0.70852 0.5 0.8125 0.35351 0.0832 0.53122 0.20864 0.53125 0.375-2e-5 0.76945-0.53319 1.4908-1.5938 2.1562-1.0398 0.64467-2.1584 0.96875-3.3438 0.96875-2.5995 0-4.4814-0.94087-5.6875-2.8125-0.81104-1.2477-1.2188-2.6174-1.2188-4.1562-1e-5 -0.22874 0.0418-0.38556 0.125-0.46875h13.406c0.20794-0.0832 0.3125-0.25044 0.3125-0.5-0.0624-0.20795-0.11469-0.41703-0.15625-0.625-0.0624-0.66545-0.25058-1.3345-0.5625-2-0.29116-0.66545-0.6675-1.2718-1.125-1.8125-0.5823-0.68624-1.4814-1.3449-2.6875-1.9688-1.3933-0.70704-2.6688-1.0625-3.875-1.0625zm-0.625 1.7188c1.1438 2e-5 2.0116 0.48091 2.6562 1.4375 0.56147 0.83184 0.84372 1.8773 0.84375 3.125h-7.9062c-1e-5 -1.2269 0.43908-2.2933 1.3125-3.1875 0.89421-0.915 1.9292-1.375 3.0938-1.375z"/><path id="e" d="m615.27 140.72a1.5 1.5 0 0 1-1.5 1.5 1.5 1.5 0 0 1-1.5-1.5 1.5 1.5 0 0 1 1.5-1.5 1.5 1.5 0 0 1 1.5 1.5zm-9.9806-22.277c-6.5525 0-12.396 2.1841-16.207 6.1914 2.8388 1.8972 5.9929 3.6708 9.4043 5.2305 8.616 3.9391 17.199 5.7779 23.996 5.5938 1.2501-0.0339 2.4316-0.13868 3.541-0.30469-0.76075-10.581-9.753-16.711-20.734-16.711zm-17.623 7.8984c-2.005 2.7755-3.168 6.2265-3.168 10.277-1e-5 2.9932 0.67685 6.179 2.6172 8.541 1.1888 1.4472 2.6859 2.4749 4.3984 3.1992 1.311 0.55429 2.7558 0.80514 3.4531 2.1816 0.69402 1.37 0.54427 2.3258 1.8906 3.3809 2.2873 1.7922 5.6167 2.1797 8.4316 2.1797 2.8151 0 6.1464-0.38744 8.4336-2.1797 1.3463-1.055 1.1966-2.0108 1.8906-3.3809 0.69733-1.3765 2.105-1.6273 3.416-2.1816 1.7124-0.72435 3.2467-1.7518 4.4356-3.1992 1.7791-2.1657 2.4889-5.0234 2.5957-7.791-0.80266 0.11143-1.6302 0.19165-2.4805 0.24024-0.1049 0.44033-0.32208 0.99492-0.67578 1.6973-3.8877 7.7198-7.5864 9.2188-12.271 6.8594-1.1712-0.58985-2.1396-1.4435-2.8887-2.4824-0.74909-1.0389-1.28-2.2634-1.5723-3.5937-0.25658-1.1678-0.32947-3.4687-0.20899-5.0039-2.7606-0.85903-5.5752-1.9307-8.3926-3.2188-3.5934-1.6429-6.9138-3.5129-9.9043-5.5254zm9.25 9.1094c0.0778-9e-4 0.15505-3.2e-4 0.23242 4e-3 0.3537 0.0172 0.71563 0.096 1.0527 0.21875 2.697 0.98158 3.636 5.1918 2.6543 7.8887-0.98157 2.697-3.9553 4.0713-6.6523 3.0898-2.6969-0.98157-4.1085-3.9553-3.127-6.6524 0.83202-2.2861 3.4276-4.5213 5.8398-4.5488z" stop-color="#000000" stroke-width="2.2"/></g></svg>