<svg id="a" width="48.663" height="44.273" version="1.1" xmlns="http://www.w3.org/2000/svg"><g id="b" transform="translate(-814.73 -439.09)"><path id="c" d="m824.26 474.07c0.69188 0.66571 1.4437 1.2664 2.2317 1.7768l-3.409 0.55464c-0.63181 0.10273-1.1853-0.42985-1.107-1.0652l0.42284-3.4278c0.54038 0.76779 1.171 1.4972 1.8615 2.1615zm30.56-31.758c-2.7548 1.0907-5.6788 2.1143-8.2905 3.2357-2.4145 1.0208-4.5857 2.1424-6.5769 3.6352-2.3238 1.5583-4.4213 3.25-6.4069 5.1112-2.1322 2.049-4.1889 4.1972-6.0624 6.3828l-5.2451 0.40823-0.0137 6.4e-4c-1.0811 0.14126-2.08 0.64705-2.836 1.4326l-4.3915 4.5642c-0.63977 0.66494-0.0661 1.7622 0.84469 1.6141l3.5535-0.57823c0.5253-0.086 1.1143 5e-3 1.8001 0.2113 0.43992 0.13552 0.82812 0.28623 1.2386 0.44402 0.12588 0.0492 0.25151 0.0979 0.3855 0.14693 0.39884 1.5242 1.3014 2.9431 2.4775 4.0748 1.1762 1.1317 2.6272 1.9773 4.1657 2.317l0.1604 0.37479c0.1749 0.40813 0.34072 0.79099 0.49315 1.2253 0.23312 0.67727 0.34594 1.2625 0.28046 1.7906l-0.44079 3.5732c-0.11281 0.91578 1.0057 1.4467 1.6454 0.78182l4.3916-4.5642c0.7562-0.78514 1.2222-1.8036 1.3222-2.8891l0.2087-5.273c2.1106-1.9556 4.1786-4.0906 6.1428-6.2991 1.7832-2.0559 3.3912-4.2186 4.8588-6.6008 1.415-2.0472 2.4537-4.2585 3.3806-6.7105 1.0199-2.653 1.93-5.6143 2.9137-8.4091zm-13.944-3.2291c-12.43 0-22.512 7.2484-22.512 19.678 0 0.65784 0.0398 1.3244 0.10547 1.9902 0.46854-0.35228 0.96959-0.6609 1.5273-0.89453 1.9828-0.67689 4.1266-0.52664 6.1856-0.76953 2.5051-2.8219 5.1162-5.5647 8.0117-7.9922 2.7424-2.2151 5.5981-4.3466 8.7656-5.9199 2.9931-1.4636 6.1041-2.6171 9.209-3.7773-3.3207-1.5151-7.1765-2.3144-11.293-2.3144zm15.322 4.7109c-1.7465 5.0907-3.1965 10.367-6.2129 14.885-2.8793 4.7667-6.7544 9.0043-10.812 12.861-0.25969 2.479 0.22895 5.1986-1.1211 7.4394-0.16603 0.22764-0.33931 0.44892-0.51562 0.66797 1.133 0.15087 2.2713 0.20898 3.3398 0.20898 3.048 0 6.6545-0.4228 9.1309-2.3633 1.4576-1.1423 1.2954-2.1748 2.0469-3.6582 0.75499-1.4903 2.2798-1.7612 3.6992-2.3613 1.854-0.78427 3.5136-1.8977 4.8008-3.4648 2.1006-2.5572 2.834-6.007 2.834-9.248-2e-5 -6.5102-2.7687-11.596-7.1894-14.967z" fill="#fc0"/></g></svg>