<svg id="a" width="80" height="100" version="1.1" viewBox="0 0 80 100" xmlns="http://www.w3.org/2000/svg"><g id="b" transform="translate(-569.63 -153.41)"><path id="c" d="m609.6 160.24c-7.8611 0-14.871 2.6201-19.443 7.4277 3.4058 2.2761 7.1886 4.4023 11.281 6.2734 10.337 4.7257 20.634 6.9319 28.789 6.7109 1.4998-0.0411 2.917-0.16609 4.248-0.36523-0.91265-12.693-11.701-20.047-24.875-20.047zm-21.143 9.4746c-2.4054 3.3298-3.8008 7.4702-3.8008 12.33 0 3.591 0.81273 7.4124 3.1406 10.246 1.4263 1.7363 3.2208 2.9709 5.2754 3.8398 1.5728 0.66506 3.306 0.96576 4.1426 2.6172 0.83263 1.6437 0.65426 2.789 2.2695 4.0547 2.7441 2.1502 6.738 2.6152 10.115 2.6152 3.3772 0 7.3732-0.46504 10.117-2.6152 1.6152-1.2657 1.4369-2.411 2.2695-4.0547 0.83653-1.6514 2.5249-1.9521 4.0977-2.6172 2.0544-0.86899 3.894-2.1034 5.3203-3.8398 2.1344-2.5982 2.9871-6.0253 3.1152-9.3457-0.96296 0.13374-1.9565 0.22875-2.9766 0.28711-0.12577 0.52827-0.38617 1.1945-0.81055 2.0371-4.6641 9.2615-9.102 11.059-14.723 8.2285-1.4052-0.70768-2.5662-1.7321-3.4648-2.9785-0.89869-1.2464-1.5361-2.7146-1.8867-4.3106-0.30784-1.401-0.39456-4.1622-0.25-6.0039-3.312-1.0306-6.6883-2.316-10.068-3.8613-4.311-1.9709-8.295-4.2146-11.883-6.6289zm11.098 10.928v2e-3c0.0942-1e-3 0.18641-5.4e-4 0.2793 4e-3 0.4243 0.0199 0.85729 0.11433 1.2617 0.26172 3.2356 1.1776 4.3633 6.2294 3.1856 9.4648-1.1776 3.2356-4.7468 4.8845-7.9824 3.707-3.2354-1.1776-4.9276-4.7468-3.75-7.9824 0.99816-2.7427 4.1119-5.424 7.0059-5.457zm20.219 4.5234a1.7996 1.7996 0 0 0-1.7988 1.7988 1.7996 1.7996 0 0 0 1.7988 1.8008 1.7996 1.7996 0 0 0 1.8008-1.8008 1.7996 1.7996 0 0 0-1.8008-1.7988zm4.4492 13.999c-0.0252 0.0106-0.051 0.0206-0.0762 0.0312-0.0935 0.0405-0.1823 0.0858-0.26562 0.13477-0.0833 0.0489-0.16032 0.10161-0.23438 0.1582-0.13879 0.10606-0.26025 0.22646-0.37109 0.35547-0.0704 0.0825-0.13022 0.17358-0.19141 0.26367-0.0401 0.0588-0.0845 0.11421-0.12109 0.17578-0.0657 0.11065-0.12308 0.22789-0.17969 0.34571-0.0222 0.0463-0.0492 0.0895-0.0703 0.13672-0.0276 0.0617-0.0502 0.12647-0.0762 0.18944-0.14513 0.35237-0.27213 0.7173-0.4004 1.0781-0.0419 0.11765-0.0847 0.23489-0.1289 0.34961-0.0198 0.0513-0.042 0.0999-0.0625 0.15039-0.0407 0.0999-0.0803 0.20129-0.125 0.29687-7e-3 0.0154-0.016 0.0297-0.0234 0.0449-7e-3 0.0145-0.0124 0.0305-0.0195 0.0449-0.0254 0.0505-0.0552 0.0972-0.082 0.14649-0.0351 0.065-0.0698 0.13042-0.10742 0.19336-0.024 0.0399-0.0493 0.0781-0.0742 0.11718-0.0565 0.0891-0.11445 0.17674-0.17578 0.26172-8.5e-4 1e-3 -1e-3 3e-3 -2e-3 4e-3s-3e-3 2e-3 -4e-3 4e-3c-0.16188 0.22344-0.33966 0.43212-0.53125 0.62889-2e-3 2e-3 -2e-3 4e-3 -4e-3 6e-3 -3e-3 3e-3 -7e-3 6e-3 -0.01 0.01-0.18728 0.19104-0.38743 0.36907-0.59766 0.53711-0.0512 0.041-0.10778 0.0755-0.16016 0.11523-0.16738 0.12668-0.33583 0.25294-0.51367 0.36719-0.0989 0.0636-0.2031 0.11969-0.30469 0.17969-0.13683 0.0807-0.2713 0.16367-0.41211 0.23828-0.12387 0.0657-0.25066 0.12432-0.37695 0.18554-0.13592 0.0659-0.27038 0.13421-0.4082 0.19532-0.0621 0.0275-0.12511 0.0515-0.1875 0.0781-0.2075 0.0886-0.41451 0.17471-0.62305 0.2539-0.23047 0.0875-0.46139 0.17231-0.68945 0.25-0.0149 4e-3 -0.0301 7e-3 -0.0449 0.0117-0.0162 5e-3 -0.0326 0.0121-0.0488 0.0176-0.20916 0.0615-0.42213 0.10754-0.63281 0.16211-0.23246 0.0605-0.4631 0.12738-0.69727 0.17969-5e-3 1e-3 -0.0104 3e-3 -0.0156 4e-3 -0.13456 0.03-0.27117 0.0489-0.40625 0.0762-0.30607 0.0619-0.61155 0.12695-0.91992 0.17578-0.2338 0.0369-0.4702 0.0601-0.70508 0.0898-0.22698 0.0289-0.45381 0.0635-0.68164 0.0859-0.12534 0.0123-0.2514 0.0169-0.37695 0.0274-0.80495 0.0671-1.6127 0.10283-2.4219 0.0996-0.46295-2e-3 -0.92633-0.0133-1.3887-0.0352-0.92526-0.0437-1.8476-0.12383-2.7617-0.23438-1.7335-0.26529-3.5295-0.72117-5.0977-1.5566-2e-3 -1e-3 -4e-3 -3e-3 -6e-3 -4e-3 -0.46819-0.24984-0.9163-0.53263-1.3359-0.85547l-6e-3 -6e-3c-0.13837-0.1065-0.27428-0.21687-0.40625-0.33203l-6e-3 -6e-3c-0.13186-0.1153-0.25986-0.23504-0.38476-0.35938l-4e-3 -4e-3c-0.12549-0.1251-0.24734-0.25409-0.36523-0.38867l-6e-3 -6e-3c-4e-3 -4e-3 -6e-3 -9e-3 -0.01-0.0137-0.13792-0.1553-0.25678-0.32208-0.36133-0.49804l-2e-3 -2e-3c-0.0355-0.0599-0.0613-0.12574-0.0937-0.1875-0.0674-0.12793-0.13634-0.25463-0.19336-0.38867-0.0805-0.18922-0.15182-0.38421-0.2207-0.58008-0.0706-0.20083-0.13945-0.40283-0.20899-0.60351-5e-3 -0.0151-0.0104-0.0299-0.0156-0.0449-0.0173-0.0496-0.037-0.0972-0.0547-0.14649-0.0521-0.1448-0.10359-0.28948-0.16211-0.42969-0.0358-0.0857-0.0815-0.16486-0.12109-0.24804-0.0491-0.10335-0.0958-0.20834-0.15235-0.30664-0.0963-0.16697-0.20473-0.32652-0.33007-0.47461-4e-3 -4e-3 -6e-3 -9e-3 -0.01-0.0137l-0.0117-0.0117c-0.0459-0.053-0.0959-0.1024-0.14648-0.15235-0.0282-0.0277-0.0543-0.0573-0.084-0.084-0.0457-0.0412-0.0968-0.0785-0.14648-0.11719-0.0339-0.0263-0.0677-0.0531-0.10352-0.0781-0.1618-0.0933-0.32715-0.181-0.49414-0.26368a17.566 27.128 0 0 0-2.9512 14.967 17.566 27.128 0 0 0 17.566 27.129 17.566 27.128 0 0 0 17.566-27.129 17.566 27.128 0 0 0-2.9316-14.992zm-14.602 19.705a3.8229 5.0863 0 0 1 3.8223 5.0859 3.8229 5.0863 0 0 1-3.8223 5.0859 3.8229 5.0863 0 0 1-3.8223-5.0859 3.8229 5.0863 0 0 1 3.8223-5.0859zm0.0234 1.0098c-0.15634 6e-3 -0.31363 0.0344-0.47266 0.0625-1.6959 0.65449-2.2732 2.9208-2.0742 4.7129 0.15454 1.4958 0.99306 3.2756 2.5234 3.377 1.6453-0.12625 2.4857-2.1203 2.5449-3.7285 0.12723-1.6798-0.49325-3.7392-2.0527-4.3555-0.15685-0.0596-0.31239-0.0748-0.46875-0.0684zm-31.641-17.736v2e-3c-2.069 0.0236-3.5635 4.6543-3.3711 10.34 0.0941 2.7783 0.58703 5.2872 1.2988 7.1309 0.53388-0.45234 1.1677-0.77942 1.9805-0.82032 1.2749-0.0639 2.2764 0.63386 2.916 1.6406 0.0226 0.0326 0.0467 0.0794 0.0703 0.11328 0.82059-1.8914 1.2961-4.8258 1.1836-8.1543-0.12618-3.7314-0.93751-7.0362-2.0723-8.8398-0.16191-0.25773-0.32765-0.4899-0.50195-0.68359-0.46605-0.51618-0.98646-0.72852-1.5039-0.72852zm63.235 0c-0.51746 0-1.0379 0.21234-1.5039 0.72852-0.1743 0.19369-0.34004 0.42586-0.50195 0.68359-1.1348 1.8036-1.9461 5.1085-2.0723 8.8398-0.11251 3.3285 0.363 6.2629 1.1836 8.1543 0.0236-0.0339 0.0477-0.0807 0.0703-0.11328 0.63957-1.0068 1.6411-1.7045 2.916-1.6406 0.81273 0.0409 1.4466 0.36798 1.9805 0.82032 0.7118-1.8437 1.2047-4.3525 1.2988-7.1309 0.19241-5.6856-1.3021-10.316-3.3711-10.34zm-49.213 1.0234-9.2617 4.5586c0.36922 1.769 0.64867 3.8087 0.63867 5.9902 0 0.32179-0.0349 0.61795-0.0449 0.93359l7.1797-0.0293c-0.0405-3.8632 0.45372-7.7299 1.4883-11.453zm35.192 0c1.0346 3.7233 1.5288 7.5899 1.4883 11.453l7.1797 0.0293c-0.01-0.31564-0.0449-0.6118-0.0449-0.93359-0.01-2.1815 0.26945-4.2212 0.63867-5.9902zm-49.039 16.824c-0.0809 4.2e-4 -0.16246 4e-3 -0.24219 0.01-4.8762 0.24479-4.3243 9.1201-3.0976 12.006 2.1592 5.0791 4.425 8.8663 4.123 14.578 1.1672-2.4836 2.0543-4.314 1.5274-7.2676-0.43651-2.4488-1.629-5.0503-1.3906-7.5625 0.24585-2.592 2.2769-4.2707 2.5508-6.7422 0.11694-1.0558-0.15728-2.3645-0.79687-3.3711-0.55945-0.881-1.383-1.5354-2.4375-1.6406-0.0754-8e-3 -0.15547-0.0102-0.23633-0.01zm-0.082 0.64842c0.23239-5e-3 0.49153 0.11926 0.75195 0.45509 0.14813 0.20043 0.28387 0.33824 0.38672 0.52343 1.5546 2.7683-2.1024 4.297-1.4356 7.3809-1.2027-1.4682-1.6905-3.1961-1.4805-5.0801 0.0667-0.59683 0.76984-3.2573 1.7773-3.2793zm62.969-0.64842c-0.0809-4.4e-4 -0.16098 2e-3 -0.23633 0.01-1.0545 0.10526-1.878 0.75963-2.4375 1.6406-0.63959 1.0066-0.91381 2.3153-0.79687 3.3711 0.27391 2.4715 2.3049 4.1502 2.5508 6.7422 0.23839 2.5122-0.95411 5.1137-1.3906 7.5625-0.52697 2.9536 0.36011 4.784 1.5274 7.2676-0.30197-5.7118 1.9639-9.499 4.123-14.578 1.2267-2.8858 1.7786-11.761-3.0976-12.006-0.0797-6e-3 -0.16133-9e-3 -0.24219-0.01zm0.082 0.64842c1.0075 0.022 1.7106 2.6825 1.7773 3.2793 0.21006 1.884-0.27778 3.6119-1.4805 5.0801 0.66683-3.0839-2.9902-4.6126-1.4356-7.3809 0.10284-0.1852 0.23859-0.32301 0.38672-0.52343 0.26042-0.33583 0.51956-0.46008 0.75195-0.45509z" stop-color="#000000"/></g></svg>