<svg id="a" width="80" height="100" version="1.1" viewBox="0 0 80 100" xmlns="http://www.w3.org/2000/svg"><g id="b" transform="translate(-569.63 -153.41)"><path id="c" d="m609.6 161.09c-7.8611 0-14.871 2.6201-19.443 7.4277 3.4058 2.2761 7.1886 4.4023 11.281 6.2734 10.337 4.7257 20.634 6.9319 28.789 6.7109 1.4998-0.0411 2.917-0.16609 4.248-0.36523-0.91265-12.693-11.701-20.047-24.875-20.047zm-21.143 9.4746c-2.4054 3.3298-3.8008 7.4702-3.8008 12.33 0 3.591 0.81273 7.4124 3.1406 10.246 1.4263 1.7363 3.2208 2.9709 5.2754 3.8398 1.5728 0.66506 3.306 0.96576 4.1426 2.6172 0.83263 1.6437 0.65426 2.789 2.2695 4.0547 2.7441 2.1502 6.738 2.6152 10.115 2.6152 3.3772 0 7.3732-0.46504 10.117-2.6152 1.6152-1.2657 1.4369-2.411 2.2695-4.0547 0.83653-1.6514 2.5249-1.9521 4.0977-2.6172 2.0544-0.86899 3.894-2.1034 5.3203-3.8398 2.1344-2.5982 2.9871-6.0253 3.1152-9.3457-0.96296 0.13374-1.9565 0.22875-2.9766 0.28711-0.12577 0.52827-0.38617 1.1945-0.81055 2.0371-4.6641 9.2615-9.102 11.059-14.723 8.2285-1.4052-0.70768-2.5662-1.7321-3.4648-2.9785-0.89869-1.2464-1.5361-2.7146-1.8867-4.3106-0.30784-1.401-0.39456-4.1622-0.25-6.0039-3.312-1.0306-6.6883-2.316-10.068-3.8613-4.311-1.9709-8.295-4.2146-11.883-6.6289zm11.098 10.928v0.00195c0.0942-1e-3 0.18641-4.5e-4 0.2793 0.00391 0.4243 0.0199 0.85729 0.11433 1.2617 0.26172 3.2356 1.1776 4.3633 6.2294 3.1856 9.4648-1.1776 3.2356-4.7468 4.8845-7.9824 3.707-3.2354-1.1776-4.9276-4.7468-3.75-7.9824 0.99816-2.7427 4.1118-5.424 7.0059-5.457zm20.219 4.5234a1.7996 1.7996 0 0 0-1.7988 1.7988 1.7996 1.7996 0 0 0 1.7988 1.8008 1.7996 1.7996 0 0 0 1.8008-1.8008 1.7996 1.7996 0 0 0-1.8008-1.7988zm4.4473 12.791c-8e-3 3e-3 -0.01564 0.00872-0.02344 0.01172-1.5014 0.61551-1.671 2.3652-2.2773 3.6621-0.98396 2.0788-3.2347 3.1554-5.3066 3.8613-3.5832 1.0803-7.4116 1.1064-11.102 0.66015-2.7736-0.42449-5.7083-1.3347-7.6113-3.5117-1.1659-1.2899-0.96636-3.4301-2.4922-4.4316-0.14295-0.0775-0.28925-0.14819-0.43555-0.21875a17.566 27.128 0 0 0-2.9512 14.967 17.566 27.128 0 0 0 17.566 27.129 17.566 27.128 0 0 0 17.566-27.129 17.566 27.128 0 0 0-2.9336-14.998v-0.00195zm-45.217 2.9863v0.00195c-2.069 0.0236-3.5635 4.6543-3.3711 10.34 0.0941 2.7783 0.58703 5.2872 1.2988 7.1309 0.53388-0.45234 1.1677-0.77942 1.9805-0.82032 1.2749-0.0639 2.2764 0.63386 2.916 1.6406 0.0226 0.0326 0.04671 0.07939 0.07031 0.11328 0.82059-1.8914 1.2961-4.8258 1.1836-8.1543-0.12618-3.7314-0.93751-7.0362-2.0723-8.8398-0.16191-0.25773-0.32765-0.4899-0.50195-0.68359-0.46605-0.51618-0.98646-0.72852-1.5039-0.72852zm61.234 0c-0.51746 0-1.0379 0.21234-1.5039 0.72852-0.1743 0.19369-0.34004 0.42586-0.50195 0.68359-1.1348 1.8036-1.9461 5.1085-2.0723 8.8398-0.11251 3.3285 0.363 6.2629 1.1836 8.1543 0.0236-0.03389 0.04771-0.08068 0.07031-0.11328 0.63957-1.0068 1.6411-1.7045 2.916-1.6406 0.81273 0.0409 1.4466 0.36798 1.9805 0.82032 0.7118-1.8437 1.2047-4.3525 1.2988-7.1309 0.19241-5.6856-1.3021-10.316-3.3711-10.34v-0.00195zm-47.713 1.0234-9.2617 4.5586c0.36922 1.769 0.64867 3.8087 0.63867 5.9902 0 0.32179-0.03492 0.61795-0.04492 0.93359l7.1797-0.0293c-0.0405-3.8632 0.45372-7.7299 1.4883-11.453zm34.191 0c1.0346 3.7233 1.5288 7.5899 1.4883 11.453l7.1797 0.0293c-0.01-0.31564-0.04492-0.6118-0.04492-0.93359-0.01-2.1815 0.26945-4.2212 0.63867-5.9902l-9.2617-4.5586zm-17.096 15.703a3.8229 5.0863 0 0 1 3.8223 5.0859 3.8229 5.0863 0 0 1-3.8223 5.0859 3.8229 5.0863 0 0 1-3.8223-5.0859 3.8229 5.0863 0 0 1 3.8223-5.0859zm-30.686 0.63086c-4.8762 0.24479-4.3243 9.1201-3.0976 12.006 2.1592 5.0791 4.425 8.8663 4.123 14.578 1.1672-2.4836 2.0543-4.314 1.5274-7.2676-0.43651-2.4488-1.629-5.0503-1.3906-7.5625 0.24585-2.592 2.2769-4.2707 2.5508-6.7422 0.11694-1.0558-0.15728-2.3645-0.79687-3.3711-0.55945-0.881-1.383-1.5354-2.4375-1.6406-0.15071-0.0151-0.31907-0.0116-0.47852 0zm60.893 0c-1.0545 0.10526-1.878 0.75963-2.4375 1.6406-0.63959 1.0066-0.91381 2.3153-0.79687 3.3711 0.27391 2.4715 2.3049 4.1502 2.5508 6.7422 0.23839 2.5122-0.95411 5.1137-1.3906 7.5625-0.52697 2.9536 0.36011 4.784 1.5274 7.2676-0.30197-5.7118 1.9638-9.499 4.123-14.578 1.2267-2.8858 1.7786-11.761-3.0976-12.006-0.15945-0.0116-0.32782-0.0151-0.47852 0zm-30.182 0.37891c-0.17162 0.00639-0.343 0.03445-0.51758 0.0625-1.8616 0.65449-2.4958 2.9208-2.2773 4.7129 0.16965 1.4958 1.0896 3.2756 2.7695 3.377 1.8061-0.12625 2.728-2.1203 2.793-3.7285 0.13969-1.6798-0.54007-3.7392-2.252-4.3555-0.17217-0.05963-0.34401-0.07476-0.51563-0.06836zm-30.551 0.25976c0.23239-5e-3 0.49153 0.11926 0.75195 0.45508 0.14813 0.20043 0.28387 0.33824 0.38672 0.52344 1.5546 2.7683-2.1024 4.297-1.4356 7.3809-1.2027-1.4682-1.6905-3.1961-1.4805-5.0801 0.0667-0.59682 0.76984-3.2573 1.7773-3.2793zm61.051 0c1.0075 0.022 1.7106 2.6825 1.7773 3.2793 0.21006 1.884-0.27777 3.6119-1.4805 5.0801 0.66684-3.0839-2.9902-4.6126-1.4356-7.3809 0.10284-0.1852 0.23859-0.32301 0.38672-0.52344 0.26042-0.33582 0.51956-0.46008 0.75195-0.45508z" stop-color="#000000"/></g></svg>